<svg width="31" height="30" viewBox="0 0 31 30" fill="none" xmlns="http://www.w3.org/2000/svg">
<g id="&#240;&#159;&#166;&#134; icon &#34;Facebook Square&#34;">
<path id="Vector" d="M27.1185 0.597656H4.09587C3.26324 0.597656 2.4647 0.928419 1.87594 1.51718C1.28718 2.10594 0.956421 2.90447 0.956421 3.7371L0.956421 26.7597C0.956421 27.5924 1.28718 28.3909 1.87594 28.9796C2.4647 29.5684 3.26324 29.8992 4.09587 29.8992H13.0727V19.9373H8.9522V15.2484H13.0727V11.6747C13.0727 7.60974 15.4927 5.36438 19.1992 5.36438C20.9743 5.36438 22.8305 5.68094 22.8305 5.68094V9.67066H20.7853C18.7702 9.67066 18.1416 10.9212 18.1416 12.2038V15.2484H22.6402L21.9207 19.9373H18.1416V29.8992H27.1185C27.9511 29.8992 28.7496 29.5684 29.3384 28.9796C29.9272 28.3909 30.2579 27.5924 30.2579 26.7597V3.7371C30.2579 2.90447 29.9272 2.10594 29.3384 1.51718C28.7496 0.928419 27.9511 0.597656 27.1185 0.597656Z" fill="#2B2722"/>
</g>
</svg>
