<svg width="30" height="30" viewBox="0 0 30 30" fill="none" xmlns="http://www.w3.org/2000/svg">
<g id="&#240;&#159;&#166;&#134; icon &#34;Instagram&#34;">
<path id="Vector" d="M14.9815 7.29613C10.7312 7.29613 7.30281 10.7245 7.30281 14.9749C7.30281 19.2252 10.7312 22.6536 14.9815 22.6536C19.2319 22.6536 22.6603 19.2252 22.6603 14.9749C22.6603 10.7245 19.2319 7.29613 14.9815 7.29613ZM14.9815 19.967C12.2348 19.967 9.98936 17.7282 9.98936 14.9749C9.98936 12.2215 12.2282 9.98268 14.9815 9.98268C17.7349 9.98268 19.9737 12.2215 19.9737 14.9749C19.9737 17.7282 17.7282 19.967 14.9815 19.967ZM24.7654 6.98203C24.7654 7.97779 23.9634 8.77306 22.9744 8.77306C21.9786 8.77306 21.1833 7.97111 21.1833 6.98203C21.1833 5.99295 21.9853 5.19099 22.9744 5.19099C23.9634 5.19099 24.7654 5.99295 24.7654 6.98203ZM29.8511 8.79979C29.7375 6.40061 29.1895 4.27543 27.4319 2.52449C25.681 0.773553 23.5558 0.22555 21.1566 0.105257C18.6839 -0.0350856 11.2725 -0.0350856 8.79979 0.105257C6.40729 0.218867 4.28211 0.76687 2.52449 2.51781C0.76687 4.26874 0.22555 6.39393 0.105257 8.79311C-0.0350856 11.2658 -0.0350856 18.6772 0.105257 21.1499C0.218867 23.5491 0.76687 25.6743 2.52449 27.4252C4.28211 29.1762 6.40061 29.7242 8.79979 29.8444C11.2725 29.9848 18.6839 29.9848 21.1566 29.8444C23.5558 29.7308 25.681 29.1828 27.4319 27.4252C29.1828 25.6743 29.7308 23.5491 29.8511 21.1499C29.9915 18.6772 29.9915 11.2725 29.8511 8.79979ZM26.6567 23.8031C26.1354 25.1129 25.1263 26.122 23.8097 26.65C21.8383 27.4319 17.1602 27.2515 14.9815 27.2515C12.8029 27.2515 8.11813 27.4252 6.15334 26.65C4.84348 26.1287 3.83435 25.1196 3.3064 23.8031C2.52449 21.8316 2.70493 17.1535 2.70493 14.9749C2.70493 12.7962 2.53117 8.11145 3.3064 6.14666C3.82767 4.8368 4.8368 3.82767 6.15334 3.29971C8.12481 2.51781 12.8029 2.69825 14.9815 2.69825C17.1602 2.69825 21.8449 2.52449 23.8097 3.29971C25.1196 3.82099 26.1287 4.83011 26.6567 6.14666C27.4386 8.11813 27.2581 12.7962 27.2581 14.9749C27.2581 17.1535 27.4386 21.8383 26.6567 23.8031Z" fill="#2B2722"/>
</g>
</svg>
