<svg width="30" height="30" viewBox="0 0 30 30" fill="none" xmlns="http://www.w3.org/2000/svg">
<g id="&#240;&#159;&#166;&#134; icon &#34;Line&#34;">
<path id="Vector" d="M18.0547 11.8604V16.5107C18.0547 16.6285 17.9631 16.72 17.8454 16.72H17.0998C17.0278 16.72 16.9624 16.6808 16.9297 16.635L14.7975 13.7572V16.5173C14.7975 16.635 14.7059 16.7266 14.5882 16.7266H13.8426C13.7249 16.7266 13.6333 16.635 13.6333 16.5173V11.867C13.6333 11.7492 13.7249 11.6577 13.8426 11.6577H14.5817C14.6471 11.6577 14.719 11.6904 14.7517 11.7492L16.8839 14.6271V11.867C16.8839 11.7492 16.9755 11.6577 17.0932 11.6577H17.8388C17.9566 11.6511 18.0547 11.7492 18.0547 11.8604ZM12.6915 11.6511H11.9458C11.8281 11.6511 11.7365 11.7427 11.7365 11.8604V16.5107C11.7365 16.6285 11.8281 16.72 11.9458 16.72H12.6915C12.8092 16.72 12.9008 16.6285 12.9008 16.5107V11.8604C12.9008 11.7492 12.8092 11.6511 12.6915 11.6511ZM10.8928 15.5493H8.85872V11.8604C8.85872 11.7427 8.76715 11.6511 8.64942 11.6511H7.9038C7.78607 11.6511 7.69451 11.7427 7.69451 11.8604V16.5107C7.69451 16.5696 7.71413 16.6154 7.75337 16.6546C7.79261 16.6873 7.8384 16.7135 7.89726 16.7135H10.8863C11.004 16.7135 11.0956 16.6219 11.0956 16.5042V15.7586C11.0956 15.6474 11.004 15.5493 10.8928 15.5493ZM21.979 11.6511H18.99C18.8788 11.6511 18.7807 11.7427 18.7807 11.8604V16.5107C18.7807 16.6219 18.8722 16.72 18.99 16.72H21.979C22.0967 16.72 22.1883 16.6285 22.1883 16.5107V15.7651C22.1883 15.6474 22.0967 15.5558 21.979 15.5558H19.9449V14.771H21.979C22.0967 14.771 22.1883 14.6794 22.1883 14.5617V13.8095C22.1883 13.6918 22.0967 13.6002 21.979 13.6002H19.9449V12.8153H21.979C22.0967 12.8153 22.1883 12.7238 22.1883 12.606V11.8604C22.1817 11.7492 22.0902 11.6511 21.979 11.6511ZM29.5594 5.94127V24.6013C29.5529 27.5315 27.1525 29.9057 24.2158 29.8991H5.55576C2.62561 29.8926 0.251408 27.4857 0.257948 24.5556V5.89548C0.264489 2.96533 2.6714 0.591129 5.60154 0.59767H24.2616C27.1918 0.60421 29.566 3.00458 29.5594 5.94127ZM25.5305 13.9599C25.5305 9.18536 20.7428 5.3003 14.8629 5.3003C8.98299 5.3003 4.19533 9.18536 4.19533 13.9599C4.19533 18.2374 7.98883 21.8216 13.1166 22.5018C14.3658 22.77 14.2219 23.2278 13.9407 24.9087C13.8949 25.1769 13.7249 25.9618 14.8629 25.4843C16.001 25.0068 21.0044 21.8674 23.2478 19.2904C24.7914 17.5899 25.5305 15.8698 25.5305 13.9599Z" fill="#2B2722"/>
</g>
</svg>
