<svg xmlns="http://www.w3.org/2000/svg" width="28" height="39" viewBox="0 0 28 39" fill="none">
  <g clip-path="url(#clip0_1004_158)">
    <path d="M14 1.69995C7.4 1.69995 2 7.29995 2 14.3C2 24.2 14 32.2 14 32.2C14 32.2 25.9 24.2 25.9 14.3C25.9 7.29995 20.6 1.69995 14 1.69995Z" stroke="#444444" stroke-width="3" stroke-miterlimit="10"/>
    <path d="M13.9997 18.6999C16.9268 18.6999 19.2997 16.327 19.2997 13.3999C19.2997 10.4727 16.9268 8.09985 13.9997 8.09985C11.0726 8.09985 8.69971 10.4727 8.69971 13.3999C8.69971 16.327 11.0726 18.6999 13.9997 18.6999Z" stroke="#444444" stroke-width="2" stroke-miterlimit="10"/>
    <path d="M21.3998 29.5C20.4998 30.5 19.4998 31.3 18.6998 32.1C21.9998 32.5 23.8998 33.3 24.4998 33.8C23.6998 34.5 20.0998 35.8 13.8998 35.8C7.69981 35.8 4.1998 34.5 3.2998 33.8C3.8998 33.3 5.7998 32.5 9.0998 32.1C8.2998 31.4 7.2998 30.5 6.3998 29.5C3.1998 30.2 0.299805 31.5 0.299805 33.8C0.299805 37.8 8.89981 38.8 13.9998 38.8C19.0998 38.8 27.6998 37.7 27.6998 33.8C27.6998 31.5 24.7998 30.2 21.3998 29.5Z" fill="#444444"/>
  </g>
  <defs>
    <clipPath id="clip0_1004_158">
      <rect width="27.4" height="38.6" fill="white" transform="translate(0.299805 0.199951)"/>
    </clipPath>
  </defs>
</svg>