<svg width="29" height="37" viewBox="0 0 29 37" fill="none" xmlns="http://www.w3.org/2000/svg">
<path id="Vector" fill-rule="evenodd" clip-rule="evenodd" d="M19.5079 10.7083C17.0496 7.63469 12.5668 7.86085 9.82963 10.4205C8.3939 11.7569 8.02205 13.1446 8.33192 15.0361C8.48686 16.0332 8.7864 17.0304 9.27186 17.9144C9.26153 17.9966 9.27186 18.0892 9.34416 18.1817C9.4991 18.3873 9.65403 18.5826 9.8193 18.7779C10.1085 19.1685 10.4494 19.518 10.8522 19.8264C11.4926 20.3301 12.2879 20.6385 13.1349 20.7722C14.8289 21.1936 16.6674 20.9161 18.2374 19.7853C21.1192 17.6985 21.7493 13.5044 19.5079 10.698V10.7083ZM22.5653 2.33036C27.0894 5.3012 29.5167 10.9139 28.9073 16.2388C28.5664 19.261 27.1204 21.9749 25.4884 24.5037C25.4884 24.5962 25.4471 24.6887 25.3748 24.771C25.2922 24.8635 25.2095 24.9663 25.1269 25.0588C25.1166 25.0794 25.1062 25.0896 25.0959 25.1102C23.3503 27.7418 21.2638 29.9828 19.0121 32.1724C17.6797 33.7143 16.3369 35.2563 14.9735 36.7777C14.7152 37.0758 14.2195 37.0655 13.9406 36.7982C11.0381 34.0433 8.31126 31.1136 5.78066 28.0194C3.374 25.0588 1.07063 21.9749 0.316613 18.1611C-0.881552 12.1166 1.33918 5.57875 6.66895 2.207C11.3996 -0.794674 17.8966 -0.722716 22.5653 2.35092V2.33036ZM27.7608 14.9333C27.6885 18.3256 26.0875 21.317 24.2902 24.1131C23.9287 24.6785 23.5465 25.2438 23.1644 25.8092C20.2413 28.9445 17.2975 32.049 14.4157 35.2254C12.3499 33.2312 10.3667 31.1547 8.48686 28.9857C6.56566 26.755 4.57216 24.4523 3.16742 21.8515C0.316612 16.5678 0.884708 9.46448 5.21256 5.11616C9.06528 1.25099 15.211 0.305256 20.1483 2.55651C24.9306 4.72553 27.8744 9.73176 27.7608 14.923V14.9333ZM25.0649 10.842C26.0978 13.1755 25.8912 15.8585 24.9926 18.2022C24.094 20.546 22.5136 22.8281 20.2516 24.0206C17.9895 25.213 15.366 25.6756 12.8354 25.3261C7.81547 24.6373 3.78716 20.4946 3.5186 15.3959C3.36367 12.4045 4.64447 9.34113 6.77224 7.20294C8.00139 5.70211 9.58173 4.58162 11.6269 4.08819C14.3744 3.43029 17.2252 3.89288 19.6938 5.23952C21.9559 6.47308 24.0217 8.47763 25.0649 10.8522V10.842ZM24.3006 15.6529C23.5465 20.2787 20.014 23.743 15.2833 24.072C10.8006 24.3803 6.55533 21.8207 5.18157 17.4724C4.32427 14.7483 5.01631 11.4279 6.71027 8.88882C7.80514 7.59357 8.98265 6.54504 10.6973 5.8563C12.6804 5.06476 14.8289 4.96197 16.8843 5.54791C21.2535 6.80204 25.0752 10.9242 24.3006 15.6426V15.6529ZM9.75733 12.3325C10.6869 10.77 12.6081 9.68036 14.4157 9.57756C18.0722 9.37196 20.6234 12.9699 19.6319 16.2388C19.5286 16.2697 19.4459 16.3519 19.4253 16.4855C19.3943 16.7117 19.3323 16.9378 19.26 17.1434C19.2084 17.2359 19.1567 17.3285 19.1051 17.421C18.3511 18.6545 17.2149 19.4255 15.9754 19.7648H15.9651C14.8599 20.0526 13.6823 19.9909 12.5978 19.6003C11.7198 19.2199 10.9555 18.562 10.3771 17.6266C9.50943 16.208 8.84837 13.8539 9.75733 12.3428V12.3325Z" fill="#2B2722"/>
</svg>
