<svg width="35" height="35" viewBox="0 0 35 35" fill="none" xmlns="http://www.w3.org/2000/svg">
<path id="Vector" fill-rule="evenodd" clip-rule="evenodd" d="M22.9793 0.900501C18.9553 -0.625779 13.6836 -0.120259 9.83381 1.72683C8.46993 2.3879 7.22212 3.292 6.09039 4.36137C5.93563 4.3322 5.77119 4.36137 5.62609 4.49747C2.87899 7.02506 0.983104 11.0498 0.286655 14.6759C-0.429139 18.3895 0.218945 22.3656 1.96974 25.7001C5.49067 32.408 13.1903 36.0535 20.5707 34.7314C28.1156 33.3801 34.1224 26.9736 34.9156 19.3034C35.7475 11.3511 30.3307 3.69058 22.9793 0.910223V0.900501ZM24.7397 9.20269C25.3104 8.74578 26.1423 9.51378 25.5716 10.0096C23.7628 11.5747 22.0023 13.1982 20.3096 14.8898C19.5454 15.6578 18.8103 16.4938 18.0654 17.3202C18.6265 17.816 19.2068 18.2729 19.8259 18.6326C20.561 19.0506 19.942 20.1588 19.1875 19.7894C18.4814 19.4395 17.843 18.9534 17.2239 18.4381C16.334 21.6462 15.4151 24.8446 14.1866 27.9361C13.9641 28.5096 13.1323 28.0333 13.3547 27.4792C14.4091 24.8446 15.2313 22.1226 16.0245 19.3909C15.8697 19.527 15.7149 19.6631 15.5505 19.7992C15.0572 20.1977 14.3607 19.4686 14.6799 18.9631C15.0378 18.3993 15.4538 17.8548 15.9181 17.3299C15.8503 17.2716 15.7923 17.2229 15.7246 17.1646C14.4768 16.1244 13.1516 15.1231 11.9812 13.976C11.4008 13.4121 12.1553 12.3039 12.8421 12.7997C13.9932 13.6454 15.0475 14.6176 16.1212 15.5508C16.3824 15.7744 16.6435 16.0175 16.9144 16.2702C17.0208 15.9105 17.1175 15.5606 17.2239 15.2106C17.3496 14.7731 17.93 14.8315 18.0558 15.162C18.491 14.7537 18.9263 14.3551 19.3326 13.9565C21.064 12.2941 22.8729 10.729 24.7301 9.21241L24.7397 9.20269ZM10.3948 16.6105C11.0332 16.6591 11.246 17.5632 10.5786 17.7771C9.23409 18.2048 7.58002 18.1271 6.17745 18.1854C5.3746 18.2243 5.35525 16.9799 6.14843 16.9313C7.52198 16.8438 9.03095 16.4938 10.3948 16.6008V16.6105ZM16.7112 24.9904C16.7789 24.2127 17.9784 24.1738 17.93 24.9613C17.843 26.2834 17.872 27.693 17.6205 28.9957C17.4851 29.686 16.4694 29.5207 16.4404 28.8596C16.3824 27.5861 16.6145 26.2542 16.7112 24.9904ZM28.2026 17.0868C28.9571 17.0868 28.9861 18.2534 28.2317 18.2632C27.5255 18.2632 26.8194 18.2826 26.1133 18.2826C25.4555 18.2826 24.7784 18.3701 24.14 18.2145C23.6177 18.0882 23.5693 17.2521 24.111 17.1257C25.3781 16.8244 26.9161 17.0674 28.2026 17.0868ZM17.8526 6.55843C17.8817 7.88056 18.1041 9.37768 17.8526 10.6901C17.7462 11.2734 16.7983 11.3123 16.6725 10.7192C16.4017 9.41656 16.5855 7.91945 16.5855 6.5876C16.5855 5.77099 17.8333 5.74182 17.8526 6.55843ZM21.6444 4.65301C27.216 6.33484 31.2496 11.74 31.2303 17.6118C31.2109 23.1822 27.4191 28.2083 22.3215 30.2012C16.6242 32.4274 9.85315 30.5706 6.1581 25.671C2.83063 21.2574 2.71455 15.3759 5.64544 10.8942C6.64175 8.2597 9.33081 6.31539 11.7974 5.26547C14.8637 3.95306 18.433 3.7003 21.6347 4.67245L21.6444 4.65301ZM23.8402 27.868C19.1875 30.7359 12.8421 30.2109 8.79881 26.4876C4.99736 22.9781 3.88497 17.3882 5.92595 12.7997C6.1581 12.8483 6.4096 12.7608 6.53535 12.4691C8.61502 7.47225 14.0028 4.92521 19.2552 5.596C24.2948 6.23762 28.4541 10.0582 29.5568 15.0453C30.6789 20.1102 28.1736 25.2043 23.8402 27.868ZM22.8535 32.6413C16.2276 34.9745 8.71175 32.7093 4.49437 27.0514C2.1632 23.9211 1.16689 20.0519 1.43773 16.173C1.54413 14.6565 1.85366 13.1788 2.376 11.7692C2.47273 11.7206 2.55979 11.6331 2.6275 11.5261C4.446 8.62912 6.18712 5.69322 9.10834 3.77807C12.1456 1.78516 16.4307 1.10465 20.0097 1.60045C23.4823 2.08653 26.5582 4.26415 28.9668 6.7237C31.5495 9.35823 33.2712 12.6733 33.5324 16.3966C34.0354 23.5031 29.5182 30.2984 22.8439 32.6413H22.8535Z" fill="#2B2722"/>
</svg>
