<svg xmlns="http://www.w3.org/2000/svg" width="40" height="39" viewBox="0 0 40 39" fill="none">
  <g clip-path="url(#clip0_1004_144)">
    <path d="M19.9999 37.0999C29.7201 37.0999 37.5999 29.2201 37.5999 19.4999C37.5999 9.77969 29.7201 1.8999 19.9999 1.8999C10.2797 1.8999 2.3999 9.77969 2.3999 19.4999C2.3999 29.2201 10.2797 37.0999 19.9999 37.0999Z" stroke="#444444" stroke-width="3" stroke-miterlimit="10"/>
    <path d="M20 32.5999V34.5999" stroke="#444444" stroke-miterlimit="10" stroke-linecap="round" stroke-linejoin="round"/>
    <path d="M20 4.5V6.4" stroke="#444444" stroke-miterlimit="10" stroke-linecap="round" stroke-linejoin="round"/>
    <path d="M6.9 19.5H5" stroke="#444444" stroke-miterlimit="10" stroke-linecap="round" stroke-linejoin="round"/>
    <path d="M35.1001 19.5H33.1001" stroke="#444444" stroke-miterlimit="10" stroke-linecap="round" stroke-linejoin="round"/>
    <path d="M10.6999 10.1999L9.3999 8.8999" stroke="#444444" stroke-miterlimit="10" stroke-linecap="round" stroke-linejoin="round"/>
    <path d="M30.6998 30.1998L29.2998 28.7998" stroke="#444444" stroke-miterlimit="10" stroke-linecap="round" stroke-linejoin="round"/>
    <path d="M29.2998 10.1999L30.6998 8.8999" stroke="#444444" stroke-miterlimit="10" stroke-linecap="round" stroke-linejoin="round"/>
    <path d="M9.3999 30.1998L10.6999 28.7998" stroke="#444444" stroke-miterlimit="10" stroke-linecap="round" stroke-linejoin="round"/>
    <path d="M20 8.7998V19.4998L23.4 26.1998" stroke="#444444" stroke-width="3" stroke-miterlimit="10" stroke-linecap="round" stroke-linejoin="round"/>
  </g>
  <defs>
    <clipPath id="clip0_1004_144">
      <rect width="38.2" height="38.2" fill="white" transform="translate(0.899902 0.399902)"/>
    </clipPath>
  </defs>
</svg>