<svg width="36" height="36" viewBox="0 0 36 36" fill="none" xmlns="http://www.w3.org/2000/svg">
<g id="faq-icon 3">
<path id="Vector" d="M29.656 13.912L29.592 13.696C28.896 11.232 27.384 9.01601 25.456 7.62401C24.904 7.22401 24.32 7.03201 23.704 6.83201C23.264 6.68801 22.808 6.53601 22.368 6.30401C21.136 5.66401 20 5.36801 18.8 5.36801H18.616C15.888 5.43201 12.24 6.88001 10.136 8.73601C9.16 9.60001 8.344 10.872 7.712 12.536C5.704 16.44 6.36 21.744 9.312 25.432C11.256 27.864 14.296 29.2 17.872 29.2C19.888 29.2 21.928 28.768 23.784 27.944C29.176 25.56 30.984 18.992 29.656 13.912ZM28.264 20.448L28.208 20.656C27.192 24.176 25.12 26.336 21.872 27.272C20.56 27.656 19.056 27.864 17.64 27.864C15.76 27.864 14.096 27.504 12.832 26.832C9.416 24.992 7.312 20.616 7.728 16.152C8.504 13.464 9.616 10.528 11.96 9.04801C13.08 8.34401 15.992 6.70401 18.896 6.70401C19.656 6.70401 20.352 6.81601 20.984 7.04801C21.464 7.22401 21.864 7.44801 22.256 7.67201C22.728 7.94401 23.176 8.19201 23.72 8.34401C24.992 8.68801 26.184 9.78401 27.272 11.6C28.784 14.128 29.128 17.264 28.256 20.456L28.264 20.448Z" fill="#2B2722"/>
<path id="Vector_2" d="M18.336 24.752C18.08 24.752 17.816 24.656 17.624 24.496C17.272 24.208 16.888 23.768 17.016 23.272C17.136 22.84 17.528 22.376 17.672 22.328C17.744 22.304 17.808 22.296 17.88 22.296C18.008 22.296 18.152 22.328 18.304 22.392C19.2 22.752 19.568 23.256 19.408 23.904C19.384 24.024 19.304 24.144 19.216 24.272L19.168 24.344C19.008 24.576 18.752 24.728 18.464 24.76H18.336V24.752ZM17.64 21.208C17.384 21.208 17.144 21.12 16.92 21.032C15.496 20.344 15.864 18.768 16.36 17.216C16.472 16.856 16.776 16.48 17.296 16.064C17.48 15.912 17.68 15.712 17.88 15.504C18.184 15.192 18.504 14.864 18.776 14.728C19.312 14.456 19.472 14.28 19.728 13.992C19.88 13.816 20.08 13.6 20.44 13.272L20.744 12.96L20.288 12.88C20.16 12.856 20.048 12.832 19.936 12.824C19.752 12.8 19.568 12.792 19.392 12.792C18.52 12.792 17.704 13.008 17.032 13.224C16.696 13.336 16.376 13.6 16.072 13.864C16.04 13.888 15.888 14.016 15.888 14.016C15.648 14.2 15.464 14.288 15.296 14.288C15.024 14.256 14.856 14.136 14.672 13.896C14.456 13.6 14.36 13.264 14.408 12.92C14.456 12.568 14.648 12.248 14.936 12.04C15.352 11.72 15.72 11.52 16.088 11.408C17.208 11.032 18.24 10.856 19.24 10.856C19.368 10.856 19.488 10.856 19.616 10.864C20.92 10.928 21.744 11.384 22.288 12.344C22.608 12.92 22.856 13.6 22.288 14.312C21.848 14.848 21.296 15.368 20.656 15.84C20.32 16.088 20.232 16.336 20.16 16.56C20.096 16.768 20.04 16.928 19.768 17.096L19.696 17.144V17.16C19.392 17.352 19.064 17.568 18.76 17.776C18.56 17.912 18.4 18.064 18.272 18.224C17.92 18.664 18.032 18.88 18.384 19.176C18.656 19.4 18.608 19.504 18.496 19.728C18.4 19.92 18.288 20.152 18.4 20.472C18.432 20.584 18.416 20.68 18.336 20.76C17.872 21.184 17.696 21.232 17.632 21.232L17.64 21.208Z" fill="black"/>
</g>
</svg>
