<svg xmlns="http://www.w3.org/2000/svg" width="29" height="28" viewBox="0 0 29 28" fill="none">
  <path d="M14.7586 18.9111C14.2386 18.9111 13.8342 19.0845 13.4875 19.4311C13.1409 19.7778 12.9675 20.24 12.9675 20.7022C12.9675 21.1645 13.1409 21.6267 13.4875 21.9734C13.8342 22.32 14.2386 22.4934 14.7586 22.4934C15.2786 22.4934 15.6831 22.32 16.0298 21.9734C16.3764 21.6267 16.5498 21.2222 16.5498 20.7022C16.5498 20.1822 16.3764 19.7778 16.0298 19.4311C15.7409 19.0845 15.2786 18.9111 14.7586 18.9111Z" fill="black"/>
  <path d="M18.8031 6.8356C17.7631 5.96894 16.4342 5.50671 14.7009 5.50671C13.8342 5.50671 13.1409 5.62227 12.4476 5.85338C11.7542 6.08449 11.1764 6.43116 10.6564 6.95116C10.1942 7.3556 9.90533 7.81782 9.61644 8.28005C9.38533 8.74227 9.26978 9.20449 9.26978 9.66671C9.26978 10.1289 9.38533 10.4756 9.61644 10.7645C9.84755 11.0534 10.1942 11.1689 10.6564 11.1689C11.3498 11.1689 11.9276 10.7645 12.332 9.89782C12.4476 9.66671 12.5053 9.55116 12.5631 9.4356C12.7942 9.03116 13.0831 8.74227 13.4298 8.56894C13.7764 8.3956 14.1809 8.28005 14.7009 8.28005C15.3364 8.28005 15.8564 8.51116 16.2609 8.9156C16.6653 9.32005 16.8387 9.84005 16.8387 10.5334C16.8387 11.3423 16.3187 12.1512 15.2209 13.0178C14.8742 13.3067 14.5853 13.5378 14.412 13.7112C14.0076 14.0578 13.7187 14.4623 13.5453 14.8667C13.3142 15.2712 13.2564 15.7334 13.2564 16.1378C13.2564 16.6 13.372 16.9467 13.6609 17.2356C13.9498 17.4667 14.2964 17.64 14.8164 17.64C15.1053 17.64 15.3942 17.5823 15.6253 17.4089C15.8564 17.2934 16.0298 17.0623 16.1453 16.7734C16.1453 16.7156 16.2031 16.6 16.3187 16.2534C16.4342 15.9645 16.5498 15.6756 16.7231 15.5023C16.8964 15.2712 17.3009 14.9245 17.8209 14.52C18.3987 14.1156 18.7453 13.7689 18.9764 13.5378C19.4387 13.0178 19.7853 12.5556 19.9587 12.0356C20.132 11.5156 20.2476 10.9956 20.2476 10.3023C20.3053 8.85782 19.7853 7.70227 18.8031 6.8356Z" fill="black"/>
  <path d="M14.8164 27C21.9961 27 27.8164 21.1797 27.8164 14C27.8164 6.8203 21.9961 1 14.8164 1C7.6367 1 1.81641 6.8203 1.81641 14C1.81641 21.1797 7.6367 27 14.8164 27Z" stroke="black" stroke-width="1.73406" stroke-miterlimit="10"/>
</svg>