<svg width="34" height="34" viewBox="0 0 34 34" fill="none" xmlns="http://www.w3.org/2000/svg">
<g id="heart-icon-empty 1">
<path id="Vector" fill-rule="evenodd" clip-rule="evenodd" d="M29.6329 12.0813C29.2476 10.7062 28.356 9.48979 27.1773 8.69645C26.0213 7.91823 24.2684 7.20801 22.8556 7.32134C20.4453 7.52534 17.9142 9.13468 17.0227 11.4165C16.0556 9.33868 14.0609 7.78223 11.7489 7.4649C8.772 7.04934 5.916 9.25557 4.69955 11.8773C4.05733 13.26 3.86844 14.9071 4.38978 16.3578C4.94133 17.8991 6.24089 19.0249 7.42711 20.0902C10.2529 22.6213 13.3884 24.7973 16.7204 26.6182C16.8564 26.7391 17.0529 26.7769 17.2493 26.6485C20.3244 24.6765 23.46 22.6138 26.1498 20.128C28.4164 18.0276 30.532 15.368 29.6253 12.0813H29.6329ZM28.7564 14.8693C28.1822 17.4231 25.5756 19.4858 23.6187 21.0196C21.5258 22.6667 19.3196 24.1702 17.0831 25.6133C14.5444 24.2156 12.1191 22.6138 9.86755 20.7929C7.63111 18.9871 4.51822 16.8413 5.14533 13.5622C5.66666 10.8498 8.50755 8.09201 11.3636 8.34134C13.9324 8.56801 16.0782 10.5778 16.66 13.0409C16.7658 13.4942 17.3551 13.396 17.476 13.0333C17.5062 12.9805 17.5213 12.92 17.5289 12.852C17.7404 9.83734 21.6693 7.63868 24.412 8.50757C25.7871 8.94579 27.0489 9.5049 27.9178 10.7062C28.7867 11.9076 29.0813 13.4187 28.7564 14.8618V14.8693Z" fill="#2B2722"/>
</g>
</svg>
