<svg xmlns="http://www.w3.org/2000/svg" width="26" height="26" viewBox="0 0 26 26" fill="none">
  <g clip-path="url(#clip0_1046_184)">
    <path d="M9.18677 5.55062C9.18677 2.97984 10.9201 0.876465 13.0001 0.876465C15.0801 0.876465 16.8134 2.97984 16.8134 5.55062" stroke="black" stroke-width="1.73333" stroke-miterlimit="10" stroke-linecap="round" stroke-linejoin="round"/>
    <path d="M22.2444 6.89441L24.2667 23.1371C24.2089 23.7798 23.6889 24.3056 23.0533 24.3056H2.94667C2.31111 24.3056 1.79111 23.7798 1.73333 23.1371L3.75556 6.89441H22.2444ZM22.4756 5.1416H3.52444C2.71556 5.1416 2.02222 5.7843 2.02222 6.6607L0 23.0203C0 24.6562 1.32889 26 2.94667 26H23.0533C24.6711 26 26 24.6562 26 23.0203L23.92 6.60228C23.92 5.7843 23.2844 5.1416 22.4756 5.1416Z" fill="black"/>
    <path d="M16.8134 9.52356C16.8134 12.5618 15.0801 15.0741 13.0001 15.0741C10.9201 15.0741 9.18677 12.6202 9.18677 9.52356" stroke="black" stroke-width="1.73333" stroke-miterlimit="10" stroke-linecap="round" stroke-linejoin="round"/>
  </g>
  <defs>
    <clipPath id="clip0_1046_184">
      <rect width="26" height="26" fill="white"/>
    </clipPath>
  </defs>
</svg>