<svg width="39" height="39" viewBox="0 0 39 39" fill="none" xmlns="http://www.w3.org/2000/svg">
<g id="shoping-bag">
<path id="Vector" fill-rule="evenodd" clip-rule="evenodd" d="M36.8333 13.312C36.8333 13.1127 36.738 12.974 36.608 12.9047C36.5387 12.6533 36.3133 12.4713 36.0013 12.6013C35.4293 12.8353 34.9353 12.48 34.3893 12.3067C33.8607 12.1333 33.3407 12.116 32.786 12.1247C32.7253 12.1247 32.552 12.116 32.37 12.1073C32.916 11.8647 33.4707 11.6567 34.0167 11.4053C34.5367 11.1627 34.1727 10.4087 33.6613 10.4607C33.6267 10.4607 33.5833 10.452 33.54 10.452C31.5033 10.4693 29.4753 10.4867 27.4387 10.504C27.3347 9.61134 27.1093 8.76201 26.7107 7.99934C26.1473 6.91601 25.1333 6.08401 23.9547 5.46868C22.5593 3.49268 20.3147 2.21001 17.654 2.35734C13.6413 2.58268 10.4173 6.63868 11.1107 10.6513C9.33401 10.6687 7.54868 10.686 5.77201 10.7033C5.46001 10.7033 5.29534 10.9287 5.26934 11.1713C5.12201 11.3793 5.12201 11.6913 5.39934 11.882C5.60734 12.0207 5.81534 12.1507 6.02334 12.2807C4.92267 12.4713 3.82201 12.6707 2.72134 12.87C2.39201 12.9307 2.34001 13.234 2.46134 13.4593C2.45268 13.494 2.43534 13.5287 2.42668 13.572C2.29668 13.754 2.29668 14.014 2.41801 14.2047C2.41801 21.5367 2.26201 28.9033 2.50468 36.2267C2.50468 36.348 2.54801 36.452 2.60868 36.53C2.50468 36.8767 2.69534 37.3187 3.16334 37.3013C14.144 36.8593 25.1333 36.7207 36.1227 36.8247C36.6427 36.8247 36.738 36.2007 36.4347 35.9233C36.712 28.4093 36.712 20.8607 36.8247 13.3467L36.8333 13.312ZM21.528 4.49801C20.7133 4.27268 19.9073 4.12534 19.1793 4.04734C15.2013 3.61401 13.0607 6.95934 12.636 10.608H12.0553C11.3707 7.01134 14.5427 3.38001 18.07 3.41468C19.37 3.42334 20.54 3.83068 21.5193 4.49801H21.528ZM25.4973 10.4953C25.5147 9.62001 25.402 8.76201 25.168 7.95601C25.5493 8.41534 25.8353 8.95268 26.0173 9.60268C26.104 9.89734 26.156 10.2007 26.1907 10.4953H25.506H25.4973ZM23.4953 6.64734C24.154 7.78268 24.5007 9.11734 24.466 10.5127C20.93 10.5473 17.394 10.5733 13.858 10.608C13.9707 9.89734 14.144 9.21268 14.3607 8.55401C14.716 7.47934 15.2533 6.37001 16.25 5.75468C17.4547 5.00068 18.928 5.18268 20.2367 5.51201C21.3373 5.78934 22.4987 6.12734 23.4953 6.65601V6.64734ZM27.5253 11.544C28.73 11.5353 29.9433 11.518 31.1567 11.5093C30.5327 11.9427 30.2207 12.4453 30.966 12.9307C31.1047 13.0173 31.2433 13.078 31.3993 13.1213C30.0907 13.1213 28.7733 13.13 27.4647 13.1387C27.508 12.6013 27.534 12.0727 27.5253 11.5353V11.544ZM26.78 17.1687C26.8493 16.848 26.9187 16.51 26.988 16.172C27.482 16.276 27.8113 16.7613 27.6293 17.3333C27.378 18.122 26.4593 18.278 25.7487 18.0787C25.0553 17.8793 24.5353 17.2813 24.7173 16.536C24.8387 16.0507 25.2547 15.7733 25.7053 15.7213C25.6707 16.1547 25.6533 16.5967 25.6707 17.0473C25.7053 17.654 26.6327 17.8013 26.7713 17.1687H26.78ZM13.728 11.6827C17.8967 11.6393 22.0567 11.6047 26.2253 11.5613C26.2167 12.09 26.156 12.6273 26.078 13.156C23.868 13.1733 21.6493 13.182 19.4393 13.1993C17.5413 13.2167 15.6433 13.1993 13.7367 13.1993C13.6933 12.6967 13.6933 12.1853 13.7367 11.674L13.728 11.6827ZM13.676 16.7267C14.0227 17.3333 14.9327 16.77 14.5947 16.1633C14.5947 16.1633 14.664 16.1807 14.7073 16.1893C15.5567 16.2933 15.5133 17.1513 14.9153 17.602C14.326 18.0527 13.2513 18.252 12.7573 17.576C12.2027 16.8133 12.6013 16.0853 13.234 15.7993C13.364 16.12 13.5113 16.432 13.676 16.718V16.7267ZM7.55734 12.974C8.00801 12.9047 7.98201 12.272 7.65267 12.0727C7.47934 11.96 7.29734 11.856 7.11534 11.7433C8.93534 11.726 10.7467 11.7087 12.558 11.6913C12.5493 12.194 12.558 12.7053 12.6187 13.1993C10.348 13.1993 8.06868 13.1993 5.79801 13.2513C6.38734 13.156 6.96801 13.0693 7.54868 12.974H7.55734ZM35.3513 35.7587C24.778 35.6027 14.196 35.7413 3.61401 36.088C3.75268 28.8773 3.50134 21.6233 3.38868 14.4127C6.52601 14.4733 9.66334 14.4387 12.8007 14.3867C12.8267 14.4993 12.8527 14.6207 12.8787 14.7333C12.4887 14.8633 12.1333 15.0887 11.8473 15.4353C11.0413 16.4147 11.3013 18.0267 12.324 18.7633C13.5373 19.63 15.574 19.0493 16.276 17.7753C16.8307 16.7873 16.3193 15.4267 15.2793 15.184C14.898 14.8807 14.43 14.6987 13.962 14.638C13.936 14.5513 13.9187 14.4647 13.8927 14.378C15.7473 14.3433 17.5933 14.3173 19.4393 14.3C21.5887 14.2827 23.738 14.2653 25.8873 14.248C25.87 14.3867 25.844 14.534 25.8267 14.6727C24.908 14.6727 24.0327 15.1753 23.7033 16.12C23.1833 17.602 24.2233 18.954 25.6707 19.2573C27.1007 19.5607 28.652 18.7893 28.8167 17.2467C28.938 16.172 28.1667 15.21 27.1873 15.0193C27.2307 14.7593 27.274 14.4993 27.3087 14.2393C30.134 14.2133 32.968 14.1873 35.7933 14.1613C35.62 21.3547 35.36 28.5653 35.334 35.7673L35.3513 35.7587Z" fill="#2B2722"/>
</g>
</svg>
