<svg width="23" height="24" viewBox="0 0 23 24" fill="none" xmlns="http://www.w3.org/2000/svg">
<path id="Vector" fill-rule="evenodd" clip-rule="evenodd" d="M11.0685 24C7.57954 24 4.60684 22.6546 2.69806 20.2054C-0.188576 16.4914 -0.837875 11.1501 1.13349 7.21853C1.7515 5.5428 2.54943 4.26183 3.50382 3.39174C5.56123 1.52266 9.12847 0.0644512 11.7961 0H11.976C13.1494 0 14.2603 0.298087 15.465 0.942598C15.8953 1.17623 16.3412 1.32931 16.7714 1.47432C17.3738 1.67573 17.9448 1.86908 18.4846 2.2719C20.3778 3.68177 21.8485 5.90534 22.529 8.38671L22.5916 8.60423C23.8902 13.712 22.1223 20.3343 16.8496 22.7351C15.0347 23.5569 13.0399 24 11.0685 24ZM12.0699 1.34542C9.22234 1.34542 6.37481 2.99698 5.28743 3.70594C3.00316 5.18832 1.91578 8.15307 1.14913 10.86C0.742345 15.3555 2.79194 19.7704 6.14013 21.6153C7.37614 22.3001 9.0033 22.6546 10.8417 22.6546C12.2263 22.6546 13.697 22.4451 14.98 22.0584C18.1482 21.1158 20.1744 18.9325 21.1757 15.3958L21.2305 15.1863C22.0831 11.9718 21.7468 8.81369 20.2682 6.26787C19.2121 4.43907 18.0387 3.33535 16.7949 2.98892C16.2551 2.83585 15.8248 2.5861 15.3633 2.31219C14.98 2.08661 14.581 1.85297 14.1195 1.68379C13.5093 1.45821 12.8209 1.33736 12.0777 1.33736L12.0699 1.34542ZM16.9435 19.8993C16.7792 19.8993 16.615 19.8912 16.4507 19.8832L16.1769 19.8671L15.4806 19.8429C14.6045 19.8107 13.7205 19.7704 12.8365 19.7543C11.9682 19.7382 11.1077 19.7301 10.2393 19.7301C8.76861 19.7301 7.21968 19.7543 5.49865 19.8107C5.20138 19.8107 4.92758 19.6012 4.865 19.3434C4.3878 17.4824 5.11533 15.6133 6.75813 14.4693C6.93024 14.3484 7.39179 14.147 7.83769 13.9537C9.04241 13.43 9.36315 13.2608 9.3788 13.0272C9.39444 12.6888 9.04241 12.2054 8.66692 11.6979C8.43223 11.3756 8.1819 11.0453 8.09585 10.8197C7.49349 9.2568 7.22751 6.78348 7.88463 5.06747C8.24448 4.11682 8.94854 3.57704 10.0907 3.35952C10.5522 3.12588 11.006 3.02115 11.491 3.02115C13.2902 3.02115 15.0034 4.52769 15.3007 6.37261C15.6136 8.24975 15.4885 10.0544 14.9643 11.3273C14.8 11.7301 14.5497 12.0121 14.2916 12.3102C14.096 12.5357 13.8848 12.7774 13.7205 13.0675C13.6188 13.2528 13.4936 13.5106 13.6031 13.72C13.7205 13.9537 14.0256 13.9698 14.3854 13.994C14.581 14.002 14.7844 14.0181 14.9722 14.0665C16.3255 14.3968 17.4911 15.3716 18.0935 16.6687C18.2656 17.0393 19.0557 18.9003 17.937 19.6737C17.6945 19.8429 17.3894 19.9235 16.9513 19.9235L16.9435 19.8993ZM15.1208 18.4491C15.2694 18.4491 15.4337 18.4814 15.6058 18.5136C15.8327 18.5458 16.0595 18.5861 16.2707 18.5861C16.568 18.5861 16.7714 18.5136 16.9044 18.3605C17.0374 18.2075 17.0921 17.9819 17.0609 17.6838C16.9826 16.9345 16.2786 16.2256 15.6449 15.8066C15.1364 15.4763 14.581 15.4038 14.0491 15.3313C13.5327 15.2588 13.0399 15.1944 12.6096 14.9124C12.1637 14.6224 11.9291 14.3082 11.8821 13.9778C11.7961 13.3736 12.3358 12.7291 12.8522 12.1007C13.126 11.7784 13.3763 11.4642 13.5484 11.1662C14.0803 10.2236 14.2368 8.80564 14.0178 6.96878C13.8535 5.59919 13.2355 4.74522 12.242 4.50352C12.0777 4.46324 11.9056 4.43907 11.7413 4.43907C11.1233 4.43907 10.5757 4.70493 10.0437 4.96274C9.87164 5.0433 9.69954 5.13192 9.51961 5.20443C9.4492 5.23666 9.38662 5.25277 9.32404 5.25277C9.28492 5.25277 9.23799 5.25277 9.19887 5.2286L9.07371 5.18026L9.01112 5.30111C8.93289 5.44612 8.87031 5.59114 8.82337 5.76838C8.60433 6.53374 8.70603 7.53273 8.78426 8.33031V8.41088C8.9016 9.60322 9.18323 10.5136 9.6526 11.1984C9.80123 11.424 10.0124 11.6173 10.208 11.8026C10.474 12.0604 10.7478 12.3182 10.8808 12.6324C11.2485 13.5106 10.6696 14.1551 10.0046 14.4612C9.75429 14.5821 9.48049 14.6949 9.19887 14.8077C7.61083 15.4683 5.81157 16.2256 6.00714 18.2961L6.02278 18.4491H6.17142C7.603 18.3927 9.05806 18.3686 10.4896 18.3686C12.0308 18.3686 13.5953 18.4008 15.1286 18.4572L15.1208 18.4491Z" fill="#2B2722"/>
</svg>
