<svg xmlns="http://www.w3.org/2000/svg" width="28" height="28" viewBox="0 0 28 28" fill="none">
  <g clip-path="url(#clip0_1046_424)">
    <path d="M14 27.125C21.2487 27.125 27.125 21.2487 27.125 14C27.125 6.75126 21.2487 0.875 14 0.875C6.75126 0.875 0.875 6.75126 0.875 14C0.875 21.2487 6.75126 27.125 14 27.125Z" stroke="black" stroke-width="1.72941" stroke-miterlimit="10"/>
    <path d="M14 13.65C16.4484 13.65 18.4333 11.6651 18.4333 9.21666C18.4333 6.7682 16.4484 4.78333 14 4.78333C11.5515 4.78333 9.56665 6.7682 9.56665 9.21666C9.56665 11.6651 11.5515 13.65 14 13.65Z" stroke="black" stroke-width="1.72941" stroke-miterlimit="10"/>
    <path d="M23.3917 23.1584L22.2834 18.8417C22.0501 17.6167 20.9417 16.7417 19.6001 16.7417H8.40006C7.0584 16.7417 5.89173 17.6167 5.71673 18.8417L4.6084 23.1584" stroke="black" stroke-width="1.72941" stroke-miterlimit="10"/>
  </g>
  <defs>
    <clipPath id="clip0_1046_424">
      <rect width="28" height="28" fill="white"/>
    </clipPath>
  </defs>
</svg>